<?xml version="1.0" encoding="UTF-8"?>
<svg id="Capa_1" data-name="Capa 1" xmlns="http://www.w3.org/2000/svg" viewBox="0 0 30.58 12.64">
  <defs>
    <style>
      .cls-1 {
        fill: #534a98;
      }

      .cls-2 {
        fill: #8a82b5;
      }
    </style>
  </defs>
  <g>
    <path class="cls-1" d="m13.77,3.53C7.46,6.19,2.91,9.84,0,12.6h3.75c2.36-2.36,5.97-5.46,10.95-7.96C23.06.43,30.61.25,30.58.07c-.03-.19-7.98-.25-16.81,3.46Z"/>
    <polygon class="cls-1" points="14.95 12.64 11.41 12.64 7.83 10.01 9.6 8.64 14.95 12.64"/>
    <polygon class="cls-1" points="3.93 4.4 .25 4.4 4.77 7.74 6.71 6.51 3.93 4.4"/>
  </g>
  <polygon class="cls-2" points="24.96 12.64 23.2 9.1 21.19 12.64 18.47 12.64 15.76 7.52 17.95 7.52 19.95 11.21 21.99 7.52 24.42 7.52 26.46 11.19 28.43 7.52 30.58 7.52 27.91 12.64 24.96 12.64"/>
</svg>